# Created by MKDS Course Modifier
mtllib Player's House.mtl
g polygon0
usemtl h_mado
v 15 24 23.5
v 15 13 23.5
v 23 13 23.5
v 23 24 23.5
v 5 24 23.5
v 5 13 23.5
v 13 13 23.5
v 13 24 23.5
v 1 57 23
v 1 41.05078 23
v 14 41.05078 23
v 14 57 23
v -14 57 23
v -14 41.05078 23
v -1 41.05078 23
v -1 57 23
vn 0 0 0.9980469
vn 0 0 0.9980469
vn 0 0 0.9980469
vn 0 0 0.9980469
vn 0 0 0.9980469
vn 0 0 0.9980469
vn 0 0 0.9980469
vn 0 0 0.9980469
vn 0 0 0.9980469
vn 0 0 0.9980469
vn 0 0 0.9980469
vn 0 0 0.9980469
vn 0 0 0.9980469
vn 0 0 0.9980469
vn 0 0 0.9980469
vn 0 0 0.9980469
vt 0.5546875 0
vt 0.5546875 -1
vt 1 -1
vt 1 0
vt 0 0
vt 0 -1
vt 0.4453125 -1
vt 0.4453125 0
vt 0 0
vt 0 -1
vt 1 -1
vt 1 0
vt 0 0
vt 0 -1
vt 1 -1
vt 1 0
f 1/1/1 2/2/2 3/3/3 4/4/4
f 5/5/5 6/6/6 7/7/7 8/8/8
f 9/9/9 10/10/10 11/11/11 12/12/12
f 13/13/13 14/14/14 15/15/15 16/16/16
g polygon1
usemtl h_kage
v -32 1 36
v 40.35156 1 36
v -32 1 27.27734
v 40.35156 1 27.27734
v -32 1 -22
v 40.35156 1 -22
v -32 1 -32
v 40.35156 1 -32
vn 0 0.9980469 0
vn 0 0.9980469 0
vn 0 0.9980469 0
vn 0 0.9980469 0
vn 0 0.9980469 0
vn 0 0.9980469 0
vn 0 0.9980469 0
vn 0 0.9980469 0
vt 0.2929688 0
vt 0.6367188 0
vt 0.2929688 0.3984375
vt 0.6367188 0.3984375
vt 0.2929688 0.7460938
vt 0.6367188 0.7460938
vt 0.2929688 1
vt 0.6367188 1
f 17/17/17 18/18/18 19/19/19
f 18/18/18 20/20/20 19/19/19
f 19/19/19 20/20/20 21/21/21
f 20/20/20 22/22/22 21/21/21
f 21/21/21 22/22/22 23/23/23
f 22/22/22 24/24/24 23/23/23
v 40.35156 1 36
v 50 1 36
v 40.35156 1 27.27734
v 50 1 27.27734
v 40.35156 1 -22
v 50 1 -22
vn 0 0.9980469 0
vn 0 0.9980469 0
vn 0 0.9980469 0
vn 0 0.9980469 0
vn 0 0.9980469 0
vn 0 0.9980469 0
vt 0.6367188 0
vt 1 0
vt 0.6367188 0.3984375
vt 1 0.3984375
vt 0.6367188 0.7460938
vt 1 0.7460938
f 25/25/25 26/26/26 27/27/27
f 26/26/26 28/28/28 27/27/27
f 27/27/27 28/28/28 29/29/29
f 28/28/28 30/30/30 29/29/29
v -42 1 27.27734
v -32 1 27.27734
v -42 1 -22
v -32 1 -22
v -42 1 -32
v -32 1 -32
vn 0 0.9980469 0
vn 0 0.9980469 0
vn 0 0.9980469 0
vn 0 0.9980469 0
vn 0 0.9980469 0
vn 0 0.9980469 0
vt 0 0.3984375
vt 0.2929688 0.3984375
vt 0 0.7460938
vt 0.2929688 0.7460938
vt 0 1
vt 0.2929688 1
f 31/31/31 32/32/32 33/33/33
f 32/32/32 34/34/34 33/33/33
f 33/33/33 34/34/34 35/35/35
f 34/34/34 36/36/36 35/35/35
v 40.35156 1 -32
v 40.35156 1 -22
v 50 1 -22
v -42 1 27.27734
v -32 1 36
v -32 1 27.27734
vn 0 0.9980469 0
vn 0 0.9980469 0
vn 0 0.9980469 0
vn 0 0.9980469 0
vn 0 0.9980469 0
vn 0 0.9980469 0
vt 0.6367188 1
vt 0.6367188 0.7460938
vt 1 0.7460938
vt 0 0.3984375
vt 0.2929688 0
vt 0.2929688 0.3984375
f 37/37/37 38/38/38 39/39/39
f 40/40/40 41/41/41 42/42/42
g polygon2
usemtl wk_hh_b
v 2.160156 10 23.5
v 5 13 23.5
v 2.160156 27 23.5
v 5 24 23.5
v 13 27 23.5
v 13 24 23.5
v 15 27 23.5
v 15 24 23.5
v 26 27 23.5
v 23 24 23.5
v 26 10 23.5
v 23 13 23.5
v 15 10 23.5
v 15 13 23.5
v 13 10 23.5
v 13 13 23.5
v 2.160156 10 23.5
v 5 13 23.5
vn 0 0 0.9980469
vn 0 0 0.9980469
vn 0 0 0.9980469
vn 0 0 0.9980469
vn 0 0 0.9980469
vn 0 0 0.9980469
vn 0 0 0.9980469
vn 0 0 0.9980469
vn 0 0 0.9980469
vn 0 0 0.9980469
vn 0 0 0.9980469
vn 0 0 0.9980469
vn 0 0 0.9980469
vn 0 0 0.9980469
vn 0 0 0.9980469
vn 0 0 0.9980469
vn 0 0 0.9980469
vn 0 0 0.9980469
vt -0.9726563 -1.964844
vt -0.9492188 -1.824219
vt -0.9726563 -1.027344
vt -0.9492188 -1.167969
vt -0.8789063 -1.027344
vt -0.8789063 -1.167969
vt -0.8632813 -1.027344
vt -0.8632813 -1.167969
vt -0.765625 -1.027344
vt -0.7929688 -1.167969
vt -0.765625 -1.964844
vt -0.7929688 -1.824219
vt -0.8632813 -1.964844
vt -0.8632813 -1.824219
vt -0.8789063 -1.964844
vt -0.8789063 -1.824219
vt -0.9726563 -1.964844
vt -0.9492188 -1.824219
f 43/43/43 44/44/44 45/45/45
f 44/44/44 46/46/46 45/45/45
f 45/45/45 46/46/46 47/47/47
f 46/46/46 48/48/48 47/47/47
f 47/47/47 48/48/48 49/49/49
f 48/48/48 50/50/50 49/49/49
f 49/49/49 50/50/50 51/51/51
f 50/50/50 52/52/52 51/51/51
f 51/51/51 52/52/52 53/53/53
f 52/52/52 54/54/54 53/53/53
f 53/53/53 54/54/54 55/55/55
f 54/54/54 56/56/56 55/55/55
f 55/55/55 56/56/56 57/57/57
f 56/56/56 58/58/58 57/57/57
f 57/57/57 58/58/58 59/59/59
f 58/58/58 60/60/60 59/59/59
v 14 41.05078 23
v 16 41.05078 23
v 14 57 23
v 16 60 23
v 1 57 23
v 1 60 23
v -1 57 23
v -1 60 23
v -14 57 23
v -16 60 23
v -14 41.05078 23
v -16 41.05078 23
vn 0 0 0.9980469
vn 0 0 0.9980469
vn 0 0 0.9980469
vn 0 0 0.9980469
vn 0 0 0.9980469
vn 0 0 0.9980469
vn 0 0 0.9980469
vn 0 0 0.9980469
vn 0 0 0.9980469
vn 0 0 0.9980469
vn 0 0 0.9980469
vn 0 0 0.9980469
vt -0.8125 -0.9453125
vt -0.7929688 -0.9453125
vt -0.8125 -0.2070313
vt -0.7929688 -0.03515625
vt -0.8671875 -0.2070313
vt -0.8671875 -0.03515625
vt -0.875 -0.2070313
vt -0.875 -0.03515625
vt -0.9335938 -0.2070313
vt -0.9492188 -0.03515625
vt -0.9335938 -0.9453125
vt -0.9492188 -0.9453125
f 61/61/61 62/62/62 63/63/63
f 62/62/62 64/64/64 63/63/63
f 63/63/63 64/64/64 65/65/65
f 64/64/64 66/66/66 65/65/65
f 65/65/65 66/66/66 67/67/67
f 66/66/66 68/68/68 67/67/67
f 67/67/67 68/68/68 69/69/69
f 68/68/68 70/70/70 69/69/69
f 69/69/69 70/70/70 71/71/71
f 70/70/70 72/72/72 71/71/71
v -26 2 22
v -26 2 20
v -26 8 22
v -26 2 10
vn 0.9980469 0 0
vn 0.9980469 0 0
vn 0.9980469 0 0
vn 0.9980469 0 0
vt 0.3984375 -0.8476563
vt 0.4101563 -0.8476563
vt 0.3984375 -0.8203125
vt 0.4570313 -0.8476563
f 73/73/73 74/74/74 75/75/75
f 74/74/74 76/76/76 75/75/75
v -6 2 10
v -6 2 20
v -6 8 22
v -6 2 22
vn -1 0 0
vn -1 0 0
vn -1 0 0
vn -1 0 0
vt 0.3320313 -0.8476563
vt 0.3828125 -0.8476563
vt 0.3945313 -0.8203125
vt 0.3945313 -0.8476563
f 77/77/77 78/78/78 79/79/79
f 78/78/78 80/80/80 79/79/79
v -1 57 23
v -1 41.05078 23
v 1 41.05078 23
v 1 57 23
v -26 8 22
v -26 2 10
v -26 28 10
v -26 28 22
v -6 8 22
v -6 28 22
v -6 28 10
v -6 2 10
v -26 2 20
v -6 2 20
v -6 2 10
v -26 2 10
v -26 2 10
v -6 2 10
v -6 28 10
v -26 28 10
v 13 24 23.5
v 13 13 23.5
v 15 13 23.5
v 15 24 23.5
vn 0 0 0.9980469
vn 0 0 0.9980469
vn 0 0 0.9980469
vn 0 0 0.9980469
vn 0.9980469 0 0
vn 0.9980469 0 0
vn 0.9980469 0 0
vn 0.9980469 0 0
vn -1 0 0
vn -1 0 0
vn -1 0 0
vn -1 0 0
vn 0 0.9980469 0
vn 0 0.9980469 0
vn 0 0.9980469 0
vn 0 0.9980469 0
vn 0 0 0.9980469
vn 0 0 0.9980469
vn 0 0 0.9980469
vn 0 0 0.9980469
vn 0 0 0.9980469
vn 0 0 0.9980469
vn 0 0 0.9980469
vn 0 0 0.9980469
vt -0.875 -0.2070313
vt -0.875 -0.9453125
vt -0.8671875 -0.9453125
vt -0.8671875 -0.2070313
vt 0.3984375 -0.8203125
vt 0.4570313 -0.8476563
vt 0.4570313 -0.6796875
vt 0.3984375 -0.6796875
vt 0.3945313 -0.8203125
vt 0.3945313 -0.6796875
vt 0.3320313 -0.6796875
vt 0.3320313 -0.8476563
vt 0.96875 -0.9726563
vt 0.96875 -0.03125
vt 0.28125 -0.03125
vt 0.28125 -0.9726563
vt 0.34375 -0.8476563
vt 0.4453125 -0.8476563
vt 0.4453125 -0.6796875
vt 0.34375 -0.6796875
vt -0.8789063 -1.167969
vt -0.8789063 -1.824219
vt -0.8632813 -1.824219
vt -0.8632813 -1.167969
f 81/81/81 82/82/82 83/83/83 84/84/84
f 85/85/85 86/86/86 87/87/87 88/88/88
f 89/89/89 90/90/90 91/91/91 92/92/92
f 93/93/93 94/94/94 95/95/95 96/96/96
f 97/97/97 98/98/98 99/99/99 100/100/100
f 101/101/101 102/102/102 103/103/103 104/104/104
g polygon3
usemtl wk_hh_a
v 43 31.28125 34
v 46 32.71875 34
v 10.96875 70.92188 34
v 15.33203 70.92188 34
v 0 84.58594 34
v 0 90.01953 34
v -10.96875 70.92188 34
v -15.33203 70.92188 34
v -43 31.28125 34
v -46 32.71875 34
vn 0 0 0.9980469
vn 0 0 0.9980469
vn 0 0 0.9980469
vn 0 0 0.9980469
vn 0 0 0.9980469
vn 0 0 0.9980469
vn 0 0 0.9980469
vn 0 0 0.9980469
vn 0 0 0.9980469
vn 0 0 0.9980469
vt 0.6650391 -0.3476563
vt 0.6699219 -0.3476563
vt 0.7001953 -0.3271484
vt 0.7001953 -0.3291016
vt 0.7109375 -0.3203125
vt 0.7148438 -0.3203125
vt 0.7001953 -0.3144531
vt 0.7001953 -0.3115234
vt 0.6650391 -0.2939453
vt 0.6699219 -0.2939453
f 105/105/105 106/106/106 107/107/107
f 106/106/106 108/108/108 107/107/107
f 107/107/107 108/108/108 109/109/109
f 108/108/108 110/110/110 109/109/109
f 109/109/109 110/110/110 111/111/111
f 110/110/110 112/112/112 111/111/111
f 111/111/111 112/112/112 113/113/113
f 112/112/112 114/114/114 113/113/113
v 0 88.44922 22
v 44 61.58203 22
v 0 88.44922 -2
v 44 61.58203 -2
v 0 88.44922 -26
v 44 61.58203 -26
vn 0.5214844 0.8535156 0
vn 0.5214844 0.8535156 0
vn 0.5214844 0.8535156 0
vn 0.5214844 0.8535156 0
vn 0.5214844 0.8535156 0
vn 0.5214844 0.8535156 0
vt 0.765625 -0.015625
vt 0.765625 -0.75
vt 0.859375 -0.015625
vt 0.859375 -0.75
vt 0.765625 -0.015625
vt 0.765625 -0.75
f 115/115/115 116/116/116 117/117/117
f 116/116/116 118/118/118 117/117/117
f 117/117/117 118/118/118 119/119/119
f 118/118/118 120/120/120 119/119/119
v 38.00391 41 30
v 38.00391 41 14
v 0 41 30
v 0 41 14
v -37.6875 41 30
v -37.6875 41 14
vn 0 0.9980469 0
vn 0 0.9980469 0
vn 0 0.9980469 0
vn 0 0.9980469 0
vn 0 0.9980469 0
vn 0 0.9980469 0
vt 0.515625 -0.234375
vt 0.515625 -0.015625
vt 0.640625 -0.234375
vt 0.640625 -0.015625
vt 0.515625 -0.234375
vt 0.515625 -0.015625
f 121/121/121 122/122/122 123/123/123
f 122/122/122 124/124/124 123/123/123
f 123/123/123 124/124/124 125/125/125
f 124/124/124 126/126/126 125/125/125
v 0 88.44922 -26
v -44 60.71875 -26
v 0 88.44922 -2
v -44 60.71875 -2
v 0 88.44922 22
v -44 60.71875 22
vn -0.5332031 0.8457031 0
vn -0.5332031 0.8457031 0
vn -0.5332031 0.8457031 0
vn -0.5332031 0.8457031 0
vn -0.5332031 0.8457031 0
vn -0.5332031 0.8457031 0
vt 0.765625 -0.015625
vt 0.765625 -0.75
vt 0.859375 -0.015625
vt 0.859375 -0.75
vt 0.765625 -0.015625
vt 0.765625 -0.75
f 127/127/127 128/128/128 129/129/129
f 128/128/128 130/130/130 129/129/129
f 129/129/129 130/130/130 131/131/131
f 130/130/130 132/132/132 131/131/131
v 30 41 27
v 30 49 27
v 0 41 27
v 0 49 27
v -30 41 27
v -30 49 27
vn 0 0 0.9980469
vn 0 0 0.9980469
vn 0 0 0.9980469
vn 0 0 0.9980469
vn 0 0 0.9980469
vn 0 0 0.9980469
vt 0.515625 -0.984375
vt 0.515625 -0.890625
vt 0.984375 -0.984375
vt 0.984375 -0.890625
vt 0.515625 -0.984375
vt 0.515625 -0.890625
f 133/133/133 134/134/134 135/135/135
f 134/134/134 136/136/136 135/135/135
f 135/135/135 136/136/136 137/137/137
f 136/136/136 138/138/138 137/137/137
v 44 58.41797 22
v 44 61.58203 22
v 0 85.28125 22
v 0 88.44922 22
v -44 57.55078 22
v -44 60.71875 22
vn 0 0 0.9980469
vn 0 0 0.9980469
vn 0 0 0.9980469
vn 0 0 0.9980469
vn 0 0 0.9980469
vn 0 0 0.9980469
vt 0.6591797 -0.3554688
vt 0.6650391 -0.3554688
vt 0.7128906 -0.3095703
vt 0.7197266 -0.3095703
vt 0.6572266 -0.2636719
vt 0.6640625 -0.2636719
f 139/139/139 140/140/140 141/141/141
f 140/140/140 142/142/142 141/141/141
f 141/141/141 142/142/142 143/143/143
f 142/142/142 144/144/144 143/143/143
v 38 42 18
v 38 60 18
v 0 42 18
v 0 84 18
v -38 42 18
v -38 60 18
vn 0 0 0.9980469
vn 0 0 0.9980469
vn 0 0 0.9980469
vn 0 0 0.9980469
vn 0 0 0.9980469
vn 0 0 0.9980469
vt 0.015625 -1.484375
vt 0.015625 -1.28125
vt 0.484375 -1.484375
vt 0.484375 -1.015625
vt 0.015625 -1.484375
vt 0.015625 -1.28125
f 145/145/145 146/146/146 147/147/147
f 146/146/146 148/148/148 147/147/147
f 147/147/147 148/148/148 149/149/149
f 148/148/148 150/150/150 149/149/149
v 46 32.71875 -38
v 15.33203 70.92188 -38
v 46 32.71875 -2
v 15.33203 70.92188 -2
v 46 32.71875 34
v 15.33203 70.92188 34
vn 0.7792969 0.6269531 0
vn 0.7792969 0.6269531 0
vn 0.7792969 0.6269531 0
vn 0.7792969 0.6269531 0
vn 0.7792969 0.6269531 0
vn 0.7792969 0.6269531 0
vt 0.78125 -0.75
vt 0.78125 -0.25
vt 0.859375 -0.75
vt 0.859375 -0.25
vt 0.78125 -0.75
vt 0.78125 -0.25
f 151/151/151 152/152/152 153/153/153
f 152/152/152 154/154/154 153/153/153
f 153/153/153 154/154/154 155/155/155
f 154/154/154 156/156/156 155/155/155
v 38 8 22
v 38 36 22
v 0 8 22
v 0 36 22
v -6 8 22
v -6 28 22
vn 0 0 0.9980469
vn 0 0 0.9980469
vn 0 0 0.9980469
vn 0 0 0.9980469
vn 0 0 0.9980469
vn 0 0 0.9980469
vt -0.984375 -0.484375
vt -0.984375 -0.015625
vt -0.515625 -0.484375
vt -0.515625 -0.015625
vt -0.59375 -0.484375
vt -0.59375 -0.1533203
f 157/157/157 158/158/158 159/159/159
f 158/158/158 160/160/160 159/159/159
f 159/159/159 160/160/160 161/161/161
f 160/160/160 162/162/162 161/161/161
v -38 8 22
v -38 36 22
v -38 8 -2
v -38 36 -2
v -38 8 -26
v -38 36 -26
vn -1 0 0
vn -1 0 0
vn -1 0 0
vn -1 0 0
vn -1 0 0
vn -1 0 0
vt -0.359375 -0.859375
vt -0.359375 -0.390625
vt -0.265625 -0.859375
vt -0.265625 -0.390625
vt -0.359375 -0.859375
vt -0.359375 -0.390625
f 163/163/163 164/164/164 165/165/165
f 164/164/164 166/166/166 165/165/165
f 165/165/165 166/166/166 167/167/167
f 166/166/166 168/168/168 167/167/167
v 38 8 -26
v 38 36 -26
v 38 8 -2
v 38 36 -2
v 38 8 22
v 38 36 22
vn 0.9980469 0 0
vn 0.9980469 0 0
vn 0.9980469 0 0
vn 0.9980469 0 0
vn 0.9980469 0 0
vn 0.9980469 0 0
vt -0.359375 -0.859375
vt -0.359375 -0.390625
vt -0.265625 -0.859375
vt -0.265625 -0.390625
vt -0.359375 -0.859375
vt -0.359375 -0.390625
f 169/169/169 170/170/170 171/171/171
f 170/170/170 172/172/172 171/171/171
f 171/171/171 172/172/172 173/173/173
f 172/172/172 174/174/174 173/173/173
v -38 8 22
v -26 8 22
v -38 36 22
v -26 28 22
v 0 36 22
v -6 28 22
vn 0 0 0.9980469
vn 0 0 0.9980469
vn 0 0 0.9980469
vn 0 0 0.9980469
vn 0 0 0.9980469
vn 0 0 0.9980469
vt -0.984375 -0.484375
vt -0.921875 -0.484375
vt -0.984375 -0.015625
vt -0.921875 -0.1533203
vt -0.515625 -0.015625
vt -0.59375 -0.1533203
f 175/175/175 176/176/176 177/177/177
f 176/176/176 178/178/178 177/177/177
f 177/177/177 178/178/178 179/179/179
f 178/178/178 180/180/180 179/179/179
v -15.33203 70.92188 -38
v -46 32.71875 -38
v -15.33203 70.92188 -2
v -46 32.71875 -2
v -15.33203 70.92188 34
v -46 32.71875 34
vn -0.7792969 0.6269531 0
vn -0.7792969 0.6269531 0
vn -0.7792969 0.6269531 0
vn -0.7792969 0.6269531 0
vn -0.7792969 0.6269531 0
vn -0.7792969 0.6269531 0
vt 0.78125 -0.25
vt 0.78125 -0.75
vt 0.859375 -0.25
vt 0.859375 -0.75
vt 0.78125 -0.25
vt 0.78125 -0.75
f 181/181/181 182/182/182 183/183/183
f 182/182/182 184/184/184 183/183/183
f 183/183/183 184/184/184 185/185/185
f 184/184/184 186/186/186 185/185/185
v -38 36 22
v 0 36 22
v 0 82 22
v 38 36 22
vn 0 0 0.9980469
vn 0 0 0.9980469
vn 0 0 0.9980469
vn 0 0 0.9980469
vt 0.015625 -0.484375
vt 0.484375 -0.484375
vt 0.484375 -0.015625
vt 0.015625 -0.484375
f 187/187/187 188/188/188 189/189/189
f 188/188/188 190/190/190 189/189/189
v 0 41 30
v 0 36 30
v 38.00391 36 30
v 38.00391 41 30
v -37.6875 36 30
v 0 36 30
v 0 41 30
v -37.6875 41 30
v -38 42 -22
v -38 42 18
v -38 60 18
v -38 60 -22
v 38 42 18
v 38 42 -22
v 38 60 -22
v 38 60 18
v 44 58.41797 22
v 44 58.41797 -2
v 44 61.58203 -2
v 44 61.58203 22
v 44 58.41797 -2
v 44 58.41797 -26
v 44 61.58203 -26
v 44 61.58203 -2
v -44 57.55078 -2
v -44 57.55078 22
v -44 60.71875 22
v -44 60.71875 -2
v -44 57.55078 -26
v -44 57.55078 -2
v -44 60.71875 -2
v -44 60.71875 -26
v 15.33203 70.92188 34
v 15.33203 70.92188 -2
v 0 90.01953 -2
v 0 90.01953 34
v -15.33203 70.92188 -38
v -15.33203 70.92188 -2
v 0 90.01953 -2
v 0 90.01953 -38
v 29 2 26
v 34 2 26
v 34 36 26
v 29 36 26
v -15.33203 70.92188 -2
v -15.33203 70.92188 34
v 0 90.01953 34
v 0 90.01953 -2
v -26 8 22
v -38 8 22
v -38 2 22
v -26 2 22
v -30 51 28
v 30 51 28
v 30 51 26
v -30 51 26
v -30 49 28
v 30 49 28
v 30 51 28
v -30 51 28
v -4 61 23
v 4 61 23
v 4 67 23
v -4 67 23
v -38 8 -2
v -38 8 -26
v -38 2 -26
v -38 2 -2
v -34 2 26
v -29 2 26
v -29 36 26
v -34 36 26
v 29 2 23
v 29 2 26
v 29 36 26
v 29 36 23
v 0 2 22
v 0 8 22
v -6 8 22
v -6 2 22
v 38 2 22
v 38 8 22
v 0 8 22
v 0 2 22
v -38 2 22
v -38 8 22
v -38 8 -2
v -38 2 -2
v -34 2 23
v -34 2 26
v -34 36 26
v -34 36 23
v 0 90.01953 -38
v 0 90.01953 -2
v 15.33203 70.92188 -2
v 15.33203 70.92188 -38
v 34 2 26
v 34 2 23
v 34 36 23
v 34 36 26
v 38 2 22
v 38 2 -2
v 38 8 -2
v 38 8 22
v 38 2 -26
v 38 8 -26
v 38 8 -2
v 38 2 -2
v -29 2 26
v -29 2 23
v -29 36 23
v -29 36 26
vn 0 0 0.9980469
vn 0 0 0.9980469
vn 0 0 0.9980469
vn 0 0 0.9980469
vn 0 0 0.9980469
vn 0 0 0.9980469
vn 0 0 0.9980469
vn 0 0 0.9980469
vn -1 0 0
vn -1 0 0
vn -1 0 0
vn -1 0 0
vn 0.9980469 0 0
vn 0.9980469 0 0
vn 0.9980469 0 0
vn 0.9980469 0 0
vn 0.9980469 0 0
vn 0.9980469 0 0
vn 0.9980469 0 0
vn 0.9980469 0 0
vn 0.9980469 0 0
vn 0.9980469 0 0
vn 0.9980469 0 0
vn 0.9980469 0 0
vn -1 0 0
vn -1 0 0
vn -1 0 0
vn -1 0 0
vn -1 0 0
vn -1 0 0
vn -1 0 0
vn -1 0 0
vn 0.7792969 0.6269531 0
vn 0.7792969 0.6269531 0
vn 0.7792969 0.6269531 0
vn 0.7792969 0.6269531 0
vn -0.7792969 0.6269531 0
vn -0.7792969 0.6269531 0
vn -0.7792969 0.6269531 0
vn -0.7792969 0.6269531 0
vn 0 0 0.9980469
vn 0 0 0.9980469
vn 0 0 0.9980469
vn 0 0 0.9980469
vn -0.7792969 0.6269531 0
vn -0.7792969 0.6269531 0
vn -0.7792969 0.6269531 0
vn -0.7792969 0.6269531 0
vn 0 0 0.9980469
vn 0 0 0.9980469
vn 0 0 0.9980469
vn 0 0 0.9980469
vn 0 0.9980469 0
vn 0 0.9980469 0
vn 0 0.9980469 0
vn 0 0.9980469 0
vn 0 0 0.9980469
vn 0 0 0.9980469
vn 0 0 0.9980469
vn 0 0 0.9980469
vn 0 0 0.9980469
vn 0 0 0.9980469
vn 0 0 0.9980469
vn 0 0 0.9980469
vn -1 0 0
vn -1 0 0
vn -1 0 0
vn -1 0 0
vn 0 0 0.9980469
vn 0 0 0.9980469
vn 0 0 0.9980469
vn 0 0 0.9980469
vn -1 0 0
vn -1 0 0
vn -1 0 0
vn -1 0 0
vn 0 0 0.9980469
vn 0 0 0.9980469
vn 0 0 0.9980469
vn 0 0 0.9980469
vn 0 0 0.9980469
vn 0 0 0.9980469
vn 0 0 0.9980469
vn 0 0 0.9980469
vn -1 0 0
vn -1 0 0
vn -1 0 0
vn -1 0 0
vn -1 0 0
vn -1 0 0
vn -1 0 0
vn -1 0 0
vn 0.7792969 0.6269531 0
vn 0.7792969 0.6269531 0
vn 0.7792969 0.6269531 0
vn 0.7792969 0.6269531 0
vn 0.9980469 0 0
vn 0.9980469 0 0
vn 0.9980469 0 0
vn 0.9980469 0 0
vn 0.9980469 0 0
vn 0.9980469 0 0
vn 0.9980469 0 0
vn 0.9980469 0 0
vn 0.9980469 0 0
vn 0.9980469 0 0
vn 0.9980469 0 0
vn 0.9980469 0 0
vn 0.9980469 0 0
vn 0.9980469 0 0
vn 0.9980469 0 0
vn 0.9980469 0 0
vt 0.890625 -0.171875
vt 0.890625 -0.34375
vt 0.96875 -0.34375
vt 0.96875 -0.171875
vt 0.890625 -0.34375
vt 0.96875 -0.34375
vt 0.96875 -0.171875
vt 0.890625 -0.171875
vt -0.359375 -0.625
vt -0.265625 -0.625
vt -0.265625 -0.390625
vt -0.359375 -0.390625
vt -0.359375 -0.625
vt -0.265625 -0.625
vt -0.265625 -0.390625
vt -0.359375 -0.390625
vt 0.7832031 -0.8095703
vt 0.7832031 -0.8417969
vt 0.8164063 -0.8417969
vt 0.8164063 -0.8095703
vt 0.7871094 -0.8076172
vt 0.7871094 -0.8388672
vt 0.8203125 -0.8388672
vt 0.8203125 -0.8076172
vt 0.7900391 -0.8105469
vt 0.7900391 -0.8427734
vt 0.8232422 -0.8427734
vt 0.8232422 -0.8105469
vt 0.7861328 -0.8125
vt 0.7861328 -0.8447266
vt 0.8183594 -0.8447266
vt 0.8183594 -0.8125
vt 0.78125 -0.1357422
vt 0.8447266 -0.1357422
vt 0.8447266 -0.04003906
vt 0.78125 -0.04003906
vt 0.7832031 -0.1337891
vt 0.8466797 -0.1337891
vt 0.8466797 -0.03808594
vt 0.7832031 -0.03808594
vt 0.890625 -0.765625
vt 0.984375 -0.765625
vt 0.984375 -0.015625
vt 0.890625 -0.015625
vt 0.8408203 -0.1376953
vt 0.7763672 -0.1376953
vt 0.7763672 -0.04199219
vt 0.8408203 -0.04199219
vt -0.390625 -0.265625
vt -0.484375 -0.265625
vt -0.484375 -0.359375
vt -0.390625 -0.359375
vt 0.90625 -0.03125
vt 0.90625 -0.84375
vt 0.984375 -0.84375
vt 0.984375 -0.03125
vt 0.90625 -0.03125
vt 0.90625 -0.84375
vt 0.984375 -0.84375
vt 0.984375 -0.03125
vt -0.40625 -0.609375
vt -0.40625 -0.390625
vt -0.484375 -0.390625
vt -0.484375 -0.609375
vt -0.4248047 -0.2597656
vt -0.4482422 -0.2597656
vt -0.4482422 -0.2900391
vt -0.4248047 -0.2900391
vt 0.890625 -0.765625
vt 0.984375 -0.765625
vt 0.984375 -0.015625
vt 0.890625 -0.015625
vt 0.9189453 -0.1914063
vt 0.9521484 -0.1914063
vt 0.9521484 -0.1660156
vt 0.9189453 -0.1660156
vt -0.390625 -0.359375
vt -0.390625 -0.265625
vt -0.484375 -0.265625
vt -0.484375 -0.359375
vt -0.390625 -0.359375
vt -0.390625 -0.265625
vt -0.484375 -0.265625
vt -0.484375 -0.359375
vt -0.4160156 -0.2900391
vt -0.4160156 -0.2597656
vt -0.4394531 -0.2597656
vt -0.4394531 -0.2900391
vt 0.9150391 -0.1953125
vt 0.9599609 -0.1953125
vt 0.9599609 -0.1699219
vt 0.9150391 -0.1699219
vt 0.7783203 -0.04394531
vt 0.8427734 -0.04394531
vt 0.8427734 -0.1396484
vt 0.7783203 -0.1396484
vt 0.9189453 -0.1914063
vt 0.9521484 -0.1914063
vt 0.9521484 -0.1660156
vt 0.9189453 -0.1660156
vt -0.4521484 -0.2919922
vt -0.4277344 -0.2919922
vt -0.4277344 -0.2617188
vt -0.4521484 -0.2617188
vt -0.4189453 -0.2919922
vt -0.4189453 -0.2617188
vt -0.4433594 -0.2617188
vt -0.4433594 -0.2919922
vt 0.9150391 -0.1953125
vt 0.9599609 -0.1953125
vt 0.9599609 -0.1699219
vt 0.9150391 -0.1699219
f 191/191/191 192/192/192 193/193/193 194/194/194
f 195/195/195 196/196/196 197/197/197 198/198/198
f 199/199/199 200/200/200 201/201/201 202/202/202
f 203/203/203 204/204/204 205/205/205 206/206/206
f 207/207/207 208/208/208 209/209/209 210/210/210
f 211/211/211 212/212/212 213/213/213 214/214/214
f 215/215/215 216/216/216 217/217/217 218/218/218
f 219/219/219 220/220/220 221/221/221 222/222/222
f 223/223/223 224/224/224 225/225/225 226/226/226
f 227/227/227 228/228/228 229/229/229 230/230/230
f 231/231/231 232/232/232 233/233/233 234/234/234
f 235/235/235 236/236/236 237/237/237 238/238/238
f 239/239/239 240/240/240 241/241/241 242/242/242
f 243/243/243 244/244/244 245/245/245 246/246/246
f 247/247/247 248/248/248 249/249/249 250/250/250
f 251/251/251 252/252/252 253/253/253 254/254/254
f 255/255/255 256/256/256 257/257/257 258/258/258
f 259/259/259 260/260/260 261/261/261 262/262/262
f 263/263/263 264/264/264 265/265/265 266/266/266
f 267/267/267 268/268/268 269/269/269 270/270/270
f 271/271/271 272/272/272 273/273/273 274/274/274
f 275/275/275 276/276/276 277/277/277 278/278/278
f 279/279/279 280/280/280 281/281/281 282/282/282
f 283/283/283 284/284/284 285/285/285 286/286/286
f 287/287/287 288/288/288 289/289/289 290/290/290
f 291/291/291 292/292/292 293/293/293 294/294/294
f 295/295/295 296/296/296 297/297/297 298/298/298
f 299/299/299 300/300/300 301/301/301 302/302/302
